<svg width="23" height="23" viewBox="0 0 23 23" fill="none" xmlns="http://www.w3.org/2000/svg">
<path d="M20.6223 8.41964C20.5646 8.24983 20.4585 8.10061 20.317 7.99043C20.1755 7.88024 20.0049 7.81389 19.8261 7.79959L14.597 7.38408L12.3341 2.37506C12.2621 2.21373 12.1449 2.07671 11.9966 1.98052C11.8484 1.88434 11.6755 1.8331 11.4988 1.83301C11.3221 1.83291 11.1492 1.88395 11.0009 1.97998C10.8525 2.076 10.7352 2.2129 10.6629 2.37415L8.40012 7.38408L3.17097 7.79959C2.99528 7.8135 2.82732 7.87774 2.68718 7.98462C2.54704 8.0915 2.44066 8.23648 2.38077 8.40224C2.32087 8.56799 2.31 8.74749 2.34944 8.91926C2.38889 9.09103 2.47699 9.2478 2.6032 9.37081L6.46751 13.1379L5.10083 19.0559C5.05933 19.235 5.07263 19.4225 5.139 19.594C5.20538 19.7655 5.32176 19.913 5.47304 20.0175C5.62433 20.1221 5.80354 20.1787 5.98741 20.1801C6.17129 20.1815 6.35134 20.1276 6.5042 20.0254L11.4985 16.6958L16.4929 20.0254C16.6491 20.1291 16.8334 20.1825 17.0209 20.1784C17.2084 20.1743 17.3901 20.1129 17.5416 20.0024C17.6932 19.8919 17.8073 19.7377 17.8685 19.5604C17.9298 19.3832 17.9353 19.1914 17.8843 19.0109L16.2067 13.1406L20.3673 9.39649C20.6397 9.15067 20.7397 8.76727 20.6223 8.41964Z" fill="#F3CD03"/>
</svg>
